<svg width="40" height="40" viewBox="0 0 40 40" fill="none" xmlns="http://www.w3.org/2000/svg">
<path d="M23.9683 9.9334L15.1506 7.00708L6.33301 9.9334V33.3439L15.1506 30.4176L23.9683 33.3439L32.7859 30.4176V7.00708L23.9683 9.9334Z" fill="#0D0B13"/>
<path d="M15.1504 7.00708V30.4176L23.968 33.3439V9.9334L15.1504 7.00708Z" fill="#0D0B13"/>
<path d="M23.9649 13.5903C21.1233 13.5903 18.8213 15.9994 18.8213 18.9686C18.8213 21.9378 23.9649 28.9535 23.9649 28.9535C23.9649 28.9535 29.1085 21.9349 29.1085 18.9686C29.1085 15.9994 26.8065 13.5903 23.9649 13.5903Z" fill="#F44336"/>
<path d="M26.1696 18.714C26.1696 19.9257 25.1822 20.9088 23.9651 20.9088C22.7481 20.9088 21.7607 19.9257 21.7607 18.714C21.7607 17.5023 22.7481 16.5193 23.9651 16.5193C25.1822 16.5193 26.1696 17.5023 26.1696 18.714Z" fill="#FFEBEE"/>
</svg>
