<svg width="112" height="84" viewBox="0 0 112 84" fill="none" xmlns="http://www.w3.org/2000/svg">
<path fill-rule="evenodd" clip-rule="evenodd" d="M39.2366 83.9998C42.0858 84.0078 44.9027 82.5953 46.5816 80.8035L44.7171 77.4861C43.8212 78.8179 42.0374 80.295 39.4948 80.4322C35.4995 80.6501 32.3193 77.5022 32.3193 73.6521C32.3193 67.0335 40.7379 64.4748 44.5637 69.6083L46.404 66.3232C44.7575 64.6201 42.1665 63.3045 39.3576 63.3125C33.4735 63.3368 28.7598 67.768 28.7598 73.6521C28.7598 79.5443 33.4332 83.9836 39.2366 83.9998Z" fill="#1F5B9C"/>
<path d="M62.8784 83.4181H67.003L60.9493 72.8444L66.4299 63.3281H62.2731L57.3817 71.8758L53.798 71.8516L53.7738 63.3281H49.8672L49.8914 83.4181H53.798V75.3143L58.2373 75.3062L62.8784 83.4181Z" fill="#1F5B9C"/>
<path d="M91.7897 73.4909C91.7897 67.4373 87.8105 63.8213 80.7479 63.4258H77.1561C70.0936 63.8213 66.082 67.405 66.082 73.4909C66.082 79.5365 70.0936 83.1202 77.1561 83.5157H80.7479C87.8105 83.1848 91.7897 79.5365 91.7897 73.4909ZM80.7479 80.1661V66.8077C85.4778 67.171 88.0526 69.4068 88.0526 73.4506C88.0526 77.5025 85.5343 79.7705 80.7479 80.1661ZM69.8837 73.4909C69.8837 69.4068 72.3374 67.2032 77.1561 66.8077V80.1661C72.515 79.7383 69.8837 77.5347 69.8837 73.4909Z" fill="#1F5B9C"/>
<path d="M107.232 63.4258C105.262 67.1064 103.575 70.4318 101.372 74.2093L95.5361 63.4258H91.5488L99.3297 77.8172C98.4742 79.1329 97.4975 80.4243 95.7621 80.4243C95.3989 80.4243 95.0196 80.3759 94.616 80.2871L96.3837 83.4915C98.6921 83.5157 100.718 82.6198 102.478 79.3912L111.211 63.4258H107.232Z" fill="#1F5B9C"/>
<path fill-rule="evenodd" clip-rule="evenodd" d="M1.54297 40.7617C6.26479 46.4925 12.7623 50.2457 20.1235 51.2224C19.8895 51.4645 19.7038 51.8197 19.5101 52.0376C13.8762 52.5219 8.7831 51.3273 3.94827 48.3651C2.95548 45.9598 2.06762 43.393 1.54297 40.7617Z" fill="#1F5B9C"/>
<path fill-rule="evenodd" clip-rule="evenodd" d="M22.2551 48.9136C21.9484 49.1961 21.4479 49.6966 21.2139 49.9791C12.5854 48.1711 5.4906 42.8923 0.897926 35.3858C0.558923 30.6559 0.994784 25.9825 2.24586 21.4141C3.98124 33.4648 11.2698 43.5784 22.2551 48.9136Z" fill="#1F5B9C"/>
<path fill-rule="evenodd" clip-rule="evenodd" d="M25.7494 46.177C25.0471 46.629 23.9898 47.3312 23.2876 47.9608C11.7615 40.7126 5.39307 28.9766 4.46484 15.5215C8.05666 8.50735 11.1884 4.78639 17.0241 0C9.18667 17.4102 14.5865 35.5953 25.7494 46.177Z" fill="#1F5B9C"/>
<path fill-rule="evenodd" clip-rule="evenodd" d="M34.6698 8.37793C43.492 14.0199 55.801 29.9853 50.0541 44.3606C45.4614 55.8302 36.1065 58.7198 32.886 60.7619C29.6574 62.7959 23.3455 68.5267 25.6863 77.3811C18.9304 74.4915 16.6462 67.55 18.8658 61.2543C23.7895 47.2502 34.8958 49.3085 38.0518 30.5584C39.4724 22.1075 36.4617 11.8406 34.6698 8.37793Z" fill="#1F5B9C"/>
<path fill-rule="evenodd" clip-rule="evenodd" d="M5.37891 51.5117C9.59222 53.804 14.0315 54.474 18.6888 53.2794C18.5516 53.4973 18.2449 54.0865 18.0996 54.2964C14.8306 55.943 11.4002 55.9914 7.78421 55.386C6.83177 54.0381 6.28291 52.9727 5.37891 51.5117Z" fill="#1F5B9C"/>
<path fill-rule="evenodd" clip-rule="evenodd" d="M9.21094 57.4129C11.8987 57.8568 14.9013 57.1707 17.3147 55.8066L16.9111 56.8721C15.4018 58.5994 12.94 59.237 10.906 59.3339C10.1634 58.7447 9.74366 58.0263 9.21094 57.4129Z" fill="#1F5B9C"/>
</svg>
