<svg width="25" height="26" viewBox="0 0 25 26" fill="none" xmlns="http://www.w3.org/2000/svg">
<path fill-rule="evenodd" clip-rule="evenodd" d="M12.5 23.0694C9.48501 23.0694 7.46828 23.0643 5.96592 22.8623C4.53348 22.6697 3.93767 22.3392 3.54924 21.9508C3.16082 21.5623 2.83029 20.9665 2.6377 19.5341C2.43572 18.0317 2.43056 16.015 2.43056 13C2.43056 9.98501 2.43572 7.96828 2.6377 6.46592C2.83029 5.03348 3.16082 4.43767 3.54924 4.04924C3.93767 3.66082 4.53348 3.33029 5.96592 3.1377C7.46828 2.93572 9.48501 2.93056 12.5 2.93056C15.515 2.93056 17.5317 2.93572 19.0341 3.1377C20.4665 3.33029 21.0623 3.66082 21.4508 4.04924C21.8392 4.43767 22.1697 5.03348 22.3623 6.46592C22.5643 7.96828 22.5694 9.98501 22.5694 13C22.5694 16.015 22.5643 18.0317 22.3623 19.5341C22.1697 20.9665 21.8392 21.5623 21.4508 21.9508C21.0623 22.3392 20.4665 22.6697 19.0341 22.8623C17.5317 23.0643 15.515 23.0694 12.5 23.0694ZM0 13C0 7.10744 0 4.16117 1.83058 2.33058C3.66117 0.5 6.60744 0.5 12.5 0.5C18.3926 0.5 21.3388 0.5 23.1694 2.33058C25 4.16117 25 7.10744 25 13C25 18.8926 25 21.8388 23.1694 23.6694C21.3388 25.5 18.3926 25.5 12.5 25.5C6.60744 25.5 3.66117 25.5 1.83058 23.6694C0 21.8388 0 18.8926 0 13ZM11.0773 8.83333V15.1269C10.0083 14.7396 7.56468 13.3841 7.41195 8.83333H4.86657C4.71384 13.6746 7.76831 18.2253 13.5209 17.838V14.546C14.4372 14.6105 16.5143 15.3593 17.4917 17.838H20.1389C20.1389 16.3857 18.0008 13.8198 16.2699 13.2873C17.305 12.7709 19.3244 11.0603 19.6298 8.83333H17.0844C16.7111 9.89841 15.4758 12.0866 13.5209 12.319V8.83333H11.0773Z" fill="#0D0B13"/>
</svg>
