<svg width="40" height="36" viewBox="0 0 40 36" fill="none" xmlns="http://www.w3.org/2000/svg">
<g clip-path="url(#clip0_185_1348)">
<rect width="40" height="36" rx="18" fill="#FCFCFC"/>
<path fill-rule="evenodd" clip-rule="evenodd" d="M35.904 -2.36792C38.7238 -2.36792 41.0131 -0.18158 41.0131 2.51129V32.6889C41.0131 35.3817 38.7238 37.5681 35.904 37.5681H4.30443C1.48467 37.5681 -0.804688 35.3817 -0.804688 32.6889V2.51129C-0.804688 -0.18158 1.48459 -2.36792 4.30443 -2.36792L35.904 -2.36792ZM34.1915 11.3312C33.8534 10.1231 32.8572 9.17163 31.5921 8.84879C29.2988 8.26192 20.1042 8.26192 20.1042 8.26192C20.1042 8.26192 10.9096 8.26192 8.61632 8.84879C7.3515 9.17163 6.35506 10.1231 6.01692 11.3312C5.40264 13.5211 5.40264 18.0901 5.40264 18.0901C5.40264 18.0901 5.40264 22.659 6.01692 24.8486C6.35506 26.0568 7.3515 27.0084 8.61632 27.3313C10.9096 27.9179 20.1042 27.9179 20.1042 27.9179C20.1042 27.9179 29.2988 27.9179 31.5921 27.3313C32.8572 27.0084 33.8534 26.0568 34.1915 24.8486C34.8058 22.659 34.8058 18.0901 34.8058 18.0901C34.8058 18.0901 34.8058 13.5211 34.1915 11.3312ZM17.1637 22.3022V13.878L24.8028 18.0901L17.1637 22.3022Z" fill="#0D0B13"/>
</g>
<defs>
<clipPath id="clip0_185_1348">
<rect width="40" height="36" rx="18" fill="white"/>
</clipPath>
</defs>
</svg>
