<svg width="410" height="404" viewBox="0 0 410 404" fill="none" xmlns="http://www.w3.org/2000/svg">
<g clip-path="url(#clip0_1132_5257)">
<path d="M11.0169 59.3084L11.0169 59.3084C7.02504 52.3107 13.01 43.833 20.9405 45.2523L20.9406 45.2523L205.136 78.1753C206.369 78.3958 207.633 78.3937 208.866 78.169L208.777 77.6771L208.866 78.169L389.209 45.299C397.113 43.8579 403.126 52.2682 399.205 59.2811L215.207 388.301C211.598 394.754 202.326 394.792 198.663 388.37L11.0169 59.3084Z" fill="#0D0B13" stroke="black"/>
<path d="M292.581 -0.388673L292.581 -0.38864L156.417 26.2923C154.894 26.5907 153.514 27.3867 152.492 28.5552C151.471 29.7237 150.867 31.1985 150.775 32.7477L150.775 32.7478L142.399 174.212L142.399 174.212C142.123 178.876 146.407 182.497 150.96 181.447L150.96 181.447L188.87 172.698C190.999 172.207 192.922 174.082 192.484 176.222L192.484 176.222L181.221 231.375C180.16 236.571 185.039 241.015 190.114 239.474L190.114 239.474L213.529 232.36C213.529 232.36 213.529 232.36 213.529 232.36C215.708 231.699 217.8 233.609 217.339 235.837L217.339 235.837L199.44 322.47C197.872 330.057 207.963 334.194 212.172 327.689L214.18 324.587L214.24 324.494L214.289 324.396L325.243 102.968C325.243 102.968 325.243 102.968 325.243 102.968C327.844 97.7773 323.358 91.8594 317.658 92.9582L317.658 92.9583L278.636 100.49C276.435 100.915 274.563 98.8651 275.184 96.7124L300.653 8.42137L300.653 8.421C302.104 3.39013 297.721 -1.39529 292.581 -0.388673Z" fill="#B73B34" stroke="#0D0B13" stroke-width="4"/>
</g>
<defs>
<clipPath id="clip0_1132_5257">
<rect width="410" height="404" fill="white"/>
</clipPath>
</defs>
</svg>
