<svg width="40" height="40" viewBox="0 0 40 40" fill="none" xmlns="http://www.w3.org/2000/svg">
<path fill-rule="evenodd" clip-rule="evenodd" d="M31.118 12.8242C31.2911 12.1714 31.118 11.6968 30.3524 11.6968H27.8067C27.1645 11.6968 26.868 12.1123 26.6949 12.5568C26.6949 12.5568 25.3853 16.3531 23.5566 18.8143C22.9635 19.5261 22.6918 19.7634 22.3705 19.7634C22.1974 19.7634 21.9748 19.5261 21.9748 18.8739V12.7935C21.9748 12.0227 21.7774 11.6667 21.2334 11.6667H17.2298C16.8341 11.6667 16.5872 12.0227 16.5872 12.3786C16.5872 13.1199 17.5016 13.2981 17.6002 15.3739V19.8843C17.6002 20.8629 17.4544 21.0417 17.1307 21.0417C16.2659 21.0417 14.1654 17.2159 12.9054 12.8566C12.6604 11.9931 12.4115 11.6667 11.7689 11.6667H9.19878C8.45746 11.6667 8.33398 12.0817 8.33398 12.5267C8.33398 13.3276 9.19878 17.3606 12.3619 22.6986C14.4624 26.3444 17.4525 28.3039 20.146 28.3039C21.7774 28.3039 21.9748 27.8589 21.9748 27.1176V24.3595C21.9748 23.47 22.123 23.3218 22.6422 23.3218C23.0126 23.3218 23.68 23.5585 25.1875 25.3085C26.9171 27.3843 27.2136 28.3334 28.1776 28.3334H30.7228C31.4642 28.3334 31.8103 27.8884 31.6124 27.0284C31.3903 26.1685 30.5498 24.9231 29.4623 23.4405C28.8693 22.6106 27.9797 21.6911 27.708 21.246C27.3376 20.6529 27.4362 20.4156 27.708 19.882C27.6832 19.882 30.7972 14.6031 31.118 12.8218" fill="#FCFCFC"/>
</svg>
